<svg id="Layer_1" data-name="Layer 1" xmlns="http://www.w3.org/2000/svg" viewBox="0 0 2140.74 1910"><defs><style>.cls-1{fill:#00c9c5;}.cls-2{fill:#38e0d7;}.cls-3{fill:#8dfcee;}</style></defs><title>Body01</title><path class="cls-1" d="M639.85,1118.44A11.25,11.25,0,0,1,654.66,1130a138.49,138.49,0,0,0,.77,23.82s17.12,103.16,18.89,111.63c1.25,6-13.1,36.88-21.6,54.43a11.14,11.14,0,0,1-15.74,4.85c-16.9-10.4-37.29-12.41-51-12.32a11.15,11.15,0,0,1-10.79-14.06c.73-2.71,1.41-5.5,2.06-8.36,10.59-46.77,10.07-110.14,9.18-138.37a19.88,19.88,0,0,1,13.41-19.42Z" transform="translate(-380.88 -718)"/><path class="cls-2" d="M837.7,942.63,804.48,933a13.83,13.83,0,0,0-17.69,13.29v37.17a13.85,13.85,0,0,0,8.77,12.87c10.35,4.11,28,9.89,42.75,8.6l1.36.05v.14l2-.07,2.08.07V1005l1.1,0c14,1.29,30.76-4.46,40.63-8.56a13.78,13.78,0,0,0,8.44-12.74V946.53A13.83,13.83,0,0,0,876,933.3l-30.44,9.28A13.85,13.85,0,0,1,837.7,942.63Z" transform="translate(-380.88 -718)"/><path class="cls-1" d="M915.45,820.71c0-28.73-5.22-61.39-5.22-61.39-15-46.37-68.58-41.14-68.58-41.14S788.1,713,773.08,759.32c0,0-5.23,32.66-5.23,61.39,0,0-16.33-8.49-7.84,24.17,0,0,2,28.73,17.64,28.73,0,0-1.31,28.09,7.84,37.23l41.14,21.55,15,3.27,15-3.27,41.15-21.55c9.14-9.14,7.83-37.23,7.83-37.23,15.68,0,17.64-28.73,17.64-28.73C931.78,812.22,915.45,820.71,915.45,820.71Z" transform="translate(-380.88 -718)"/><path class="cls-2" d="M890.37,973.92,843,978.54a6.93,6.93,0,0,1-1.44,0l-47.34-4.62a7.37,7.37,0,0,0-5.9,2.07,219.68,219.68,0,0,1-49.81,36c-6.61,3.5-4.33,13.54,3.14,13.92,34.54,1.77,85.26,5.22,89.53,10.35,3,3.65,6.08,3.9,8.46,3.13a8.4,8.4,0,0,1,5.29,0c2.38.77,5.41.52,8.46-3.13,4.27-5.13,55-8.58,89.53-10.35,7.47-.38,9.75-10.42,3.13-13.92a219.79,219.79,0,0,1-49.8-36A7.37,7.37,0,0,0,890.37,973.92Z" transform="translate(-380.88 -718)"/><path class="cls-3" d="M991,1046.13a31.41,31.41,0,0,0-26.9-13.2c-10.48.42-25.93,1.1-45.89,2.15a418.88,418.88,0,0,0-61.41,7.66,32.17,32.17,0,0,0-9.86,3.84,16.37,16.37,0,0,1-3.63,1.68v-2a2,2,0,1,1-4,0v2a16.58,16.58,0,0,1-3.63-1.68,32.21,32.21,0,0,0-9.85-3.84,418.87,418.87,0,0,0-61.42-7.66c-19.95-1-35.41-1.73-45.89-2.15a31.42,31.42,0,0,0-26.9,13.2c-14.56,20.52-37.35,61.32-26.35,104.24.25,1,.46,2,.61,3,1.56,10.91,11.3,78.17,17,101.4a30.84,30.84,0,0,0,1.66,4.94c4.55,10.46,24.53,59.82,22.77,115.53a20.32,20.32,0,0,0,15,20.32c27.65,7.42,77.05,19.72,107.55,7.65,6.33-2.5,16.52-2.86,22.84-.34,31.1,12.37,76.67-1.22,104.21-9.51A28.27,28.27,0,0,0,977,1366c-.48-52.28,16.79-96.17,21.05-106.2a32.43,32.43,0,0,0,1.69-5c5.66-23.22,15.4-90.49,17-101.41a28,28,0,0,1,.61-3C1028.34,1107.45,1005.56,1066.65,991,1046.13Z" transform="translate(-380.88 -718)"/><path class="cls-3" d="M843.31,1038.38v0a.07.07,0,0,1,0-.05Z" transform="translate(-380.88 -718)"/><path class="cls-1" d="M694.08,1012.87c-5.76-6.69-116.45-1.64-111.38,116.55,0,0,54.87-5.71,71-37.14S682.31,1029.52,694.08,1012.87Z" transform="translate(-380.88 -718)"/><path class="cls-3" d="M719.85,1400.38c24.82,10.16,78.08,27.49,119.94,10.14a9.93,9.93,0,0,1,8.29.39c12.13,6.17,51.81,20.34,116.83-14.09a10.35,10.35,0,0,1,15.22,8.33c2.1,28.49,6.67,85.59,10.29,98.92.09.34.16.64.22,1l6.78,42.39a10.33,10.33,0,0,1-8.42,11.84c-38.59,6.71-181.14,28.07-296.81.66a10.39,10.39,0,0,1-7.81-12.27c5.35-24.85,19-91.75,21.26-138.27A10.32,10.32,0,0,1,719.85,1400.38Z" transform="translate(-380.88 -718)"/><path class="cls-2" d="M1004.12,1585.94a17.75,17.75,0,0,0-20.11-14c-30.42,4.73-95.87,13.93-141.31,13.44v0l-1.54,0-1.54,0v0c-45.44.49-110.89-8.71-141.31-13.44a17.75,17.75,0,0,0-20.11,14l-7.75,38.22a17.75,17.75,0,0,0,16.37,21.27c44.36,2.53,145.41,12.8,148.23,54.06h12.22c2.83-41.26,103.87-51.53,148.23-54.06a17.74,17.74,0,0,0,16.37-21.27Z" transform="translate(-380.88 -718)"/><path class="cls-1" d="M662.38,1660.3s161.17,2.94,168.75,54.86l-33.56,230.21L782.87,2010c.12,18.5-62.8-6.55-103.22-31.41C679.65,1978.62,632.73,1810.46,662.38,1660.3Z" transform="translate(-380.88 -718)"/><path class="cls-1" d="M679.65,1986.45S736.53,2016,750,2019.57c6.45,1.71,13.77,3.68,19.88,4.16a13.22,13.22,0,0,1,12,14.18c-1.52,20.71-5.37,52.29-15,68.89a13.34,13.34,0,0,1-8.74,6.32c-17.37,3.74-73,12.89-78.48-21.78C679.65,2091.34,672.43,1968.75,679.65,1986.45Z" transform="translate(-380.88 -718)"/><path class="cls-1" d="M669.38,2119.36c-7.24,40.15-16.76,117.66-1.23,193.84.07.35.12.69.16,1l11.63,119.06a11.31,11.31,0,0,0,11.28,10.2c8.12,0,19.68.88,29.45,5.06a11.15,11.15,0,0,0,15.72-9.17c2.61-33.38,8.15-97.61,13.18-112,6.85-19.59,23.51-47,16.65-127.35l-3.86-67.51a11.46,11.46,0,0,0-.32-2.1l-.45-1.81a11.32,11.32,0,0,0-14.06-8.13c-8,2.24-18.94,4.69-27.55,4.36-9.88-.37-22.38-3.15-32-11.95A11.25,11.25,0,0,0,669.38,2119.36Z" transform="translate(-380.88 -718)"/><path class="cls-1" d="M694.28,2451.13c10.67.19,25.52,2.26,35.69,11.07a14.42,14.42,0,0,1,4.9,10.91V2489a14.52,14.52,0,0,1-20.66,13.13c-8.21-3.8-17.56-7.67-25.42-9.78a14.61,14.61,0,0,1-10.88-15.87l1.58-12.69A14.56,14.56,0,0,1,694.28,2451.13Z" transform="translate(-380.88 -718)"/><path class="cls-1" d="M668.26,2495s-25.48,51.92-50,65.64L593.8,2574.3s-30.37,15.68-13.71,29.39,37.22,27.43,54.86,19.59,39.18-25.47,46-35.26,44.08-13.39,53.88-27.76,5.78-36.71-7.84-43.76S680,2491,668.26,2495Z" transform="translate(-380.88 -718)"/><path class="cls-1" d="M1022.1,1662.73s-161.18,2.94-168.76,54.86l33.57,230.21,14.69,64.66c-.11,18.5,62.8-6.55,103.23-31.42C1004.83,1981,1051.74,1812.89,1022.1,1662.73Z" transform="translate(-380.88 -718)"/><path class="cls-1" d="M1004.83,1988.88s-56.89,29.56-70.33,33.12c-6.45,1.71-13.76,3.68-19.88,4.16a13.22,13.22,0,0,0-12,14.18c1.52,20.71,5.37,52.29,15,68.89a13.29,13.29,0,0,0,8.74,6.32c17.37,3.74,73,12.89,78.48-21.78C1004.83,2093.77,1012.05,1971.18,1004.83,1988.88Z" transform="translate(-380.88 -718)"/><path class="cls-1" d="M1015.09,2121.78c7.24,40.16,16.76,117.67,1.23,193.85a9,9,0,0,0-.15,1l-11.64,119.06a11.31,11.31,0,0,1-11.28,10.2c-8.12,0-19.68.88-29.44,5.05a11.14,11.14,0,0,1-15.72-9.16c-2.62-33.39-8.16-97.61-13.18-112-6.86-19.59-23.51-47-16.65-127.35l3.85-67.51a11.46,11.46,0,0,1,.32-2.1l.46-1.82a11.3,11.3,0,0,1,14.05-8.12c8,2.24,18.95,4.69,27.55,4.36,9.89-.37,22.39-3.15,32-12A11.25,11.25,0,0,1,1015.09,2121.78Z" transform="translate(-380.88 -718)"/><path class="cls-1" d="M990.2,2453.56c-10.68.19-25.53,2.26-35.7,11.07a14.44,14.44,0,0,0-4.9,10.9v15.93a14.52,14.52,0,0,0,20.66,13.14c8.22-3.8,17.56-7.67,25.42-9.78a14.62,14.62,0,0,0,10.89-15.87l-1.59-12.69A14.55,14.55,0,0,0,990.2,2453.56Z" transform="translate(-380.88 -718)"/><path class="cls-1" d="M1016.22,2497.38s25.47,51.92,50,65.63l24.49,13.72s30.37,15.67,13.72,29.39-37.23,27.43-54.86,19.59-39.19-25.47-46-35.27-44.08-13.38-53.88-27.75-5.78-36.71,7.84-43.76S1004.46,2493.46,1016.22,2497.38Z" transform="translate(-380.88 -718)"/><path class="cls-1" d="M582,1280.2s-9.79,28.41-20.57,45.07c0,0,59.76-6.86,79.36,25.47l21.55-56.16,6.85-14.65S632,1302.73,582,1280.2Z" transform="translate(-380.88 -718)"/><path class="cls-1" d="M589.34,1338.85s-25.91-3.79-39.62-1.83c0,0-30.37,22.53-40.17,102.86,0,0-15.67,83.27-30.36,112.66,0,0,47.46,1,55.07,21.55,0,0,46.81-93.63,65.42-118.81s43.81-87.41,23.81-99.93S597.6,1339.87,589.34,1338.85Z" transform="translate(-380.88 -718)"/><path class="cls-1" d="M490.71,1528.45s-14,31-16.42,34.87c0,0,43.1-2.45,58.29,18.12,0,0,9.22-22.55,14.71-33.29a115.05,115.05,0,0,1-34.31-8.34C495.84,1532.46,490.71,1528.45,490.71,1528.45Z" transform="translate(-380.88 -718)"/><path class="cls-1" d="M476.45,1570.08c-2.15-.08-8.56,5.34-10.05,6.9-8.51,8.91-35.45,37.09-46,48-12.25,12.74-43.11,27.43-39.19,34.29s13.23,6.86,26,0l.38-.2a7.54,7.54,0,0,1,10.49,9.67c-9.81,22.36-24.62,55.91-27.52,61.06-4.41,7.84,2.94,12.74,6.86,12.74s32.32-50,33.3-47-26.94,62.2-23,66.12,14.7,6.86,17.64,0,24.49-62.2,28.89-59.75-17.63,68.57-13.71,71.51,11.27,6.86,16.16-8.82,15.19-61.72,20.58-61.23.49,52.91,3.43,54.37,13.71,5.88,13.71-4.89v-51.75a7.41,7.41,0,0,1,1.5-4.51c3-4,10.16-14.38,16.13-30.44,7.84-21.06,16.17-65.64,16.17-65.64s4-7.79-5.37-13.25l-9.09-5.32-.48-.25C510.81,1580.53,490.25,1570.64,476.45,1570.08Z" transform="translate(-380.88 -718)"/><path class="cls-1" d="M1041.14,1117.8a11.25,11.25,0,0,0-14.81,11.58,137.33,137.33,0,0,1-.77,23.82s-17.11,103.15-18.88,111.62c-1.25,6,13.09,36.89,21.59,54.44a11.16,11.16,0,0,0,15.75,4.85c16.9-10.4,37.28-12.41,51-12.33a11.14,11.14,0,0,0,10.8-14q-1.1-4.08-2.07-8.36c-10.58-46.77-10.06-110.15-9.18-138.37a19.87,19.87,0,0,0-13.4-19.43Z" transform="translate(-380.88 -718)"/><path class="cls-1" d="M986.91,1012.22c5.77-6.68,116.46-1.63,111.38,116.56,0,0-54.86-5.71-71-37.14S998.68,1028.88,986.91,1012.22Z" transform="translate(-380.88 -718)"/><path class="cls-1" d="M1099,1279.56s9.78,28.41,20.56,45.06c0,0-59.76-6.86-79.35,25.47l-21.55-56.16-6.86-14.65S1049,1302.08,1099,1279.56Z" transform="translate(-380.88 -718)"/><path class="cls-1" d="M1091.65,1338.21s25.91-3.79,39.63-1.83c0,0,30.36,22.53,40.16,102.86,0,0,15.67,83.27,30.37,112.66,0,0-47.46,1-55.08,21.55,0,0-46.8-93.63-65.42-118.82s-43.81-87.41-23.81-99.92S1083.4,1339.23,1091.65,1338.21Z" transform="translate(-380.88 -718)"/><path class="cls-1" d="M1190.29,1527.8s14,31,16.42,34.87c0,0-43.11-2.45-58.29,18.13,0,0-9.23-22.55-14.71-33.29a114.8,114.8,0,0,0,34.3-8.35C1185.16,1531.82,1190.29,1527.8,1190.29,1527.8Z" transform="translate(-380.88 -718)"/><path class="cls-1" d="M1204.55,1569.44c2.15-.09,8.56,5.34,10,6.9,8.51,8.91,35.45,37.09,46,48.05,12.24,12.74,43.1,27.43,39.18,34.29s-13.22,6.86-26,0l-.38-.21a7.54,7.54,0,0,0-10.48,9.68c9.8,22.36,24.62,55.91,27.52,61.06,4.4,7.84-2.94,12.74-6.86,12.74s-32.33-50-33.31-47,26.94,62.21,23,66.13-14.69,6.86-17.63,0-24.49-62.21-28.9-59.76,17.63,68.58,13.72,71.52-11.27,6.85-16.17-8.82-15.18-61.72-20.57-61.23-.49,52.9-3.43,54.37-13.71,5.88-13.71-4.9v-51.74a7.48,7.48,0,0,0-1.5-4.51c-3.05-4-10.16-14.38-16.14-30.44-7.84-21.07-16.16-65.64-16.16-65.64s-4-7.79,5.37-13.25l9.09-5.32c.16-.1.3-.17.47-.26C1170.18,1579.89,1190.75,1570,1204.55,1569.44Z" transform="translate(-380.88 -718)"/><path class="cls-3" d="M2133.46,1137.11c11.91-20.84,3.75-60.27-11.92-62.53,0,0-125.82-20.25-156.53-.87-30.7-19.38-156.53.87-156.53.87-15.67,2.26-23.82,41.69-11.91,62.53s-8.93,102.73,0,123.58,28.29,110.17,23.82,183.13-4.47,75.93,47.64,73c44.9-2.56,85.35,52.3,95.69,67.55v3.92s.45-.73,1.29-2c.84,1.27,1.29,2,1.29,2v-3.92c10.35-15.25,50.79-70.11,95.69-67.55,52.11,3,52.11,0,47.64-73s14.89-162.29,23.83-183.13S2121.54,1158,2133.46,1137.11Z" transform="translate(-380.88 -718)"/><path class="cls-2" d="M1866.93,1054.72c-7,.91-10.39-8.41-4.31-12.11,21.39-13,45.47-29.81,47.1-40.44,2-13,1.31-32.82.64-44.36a6.55,6.55,0,0,1,8.15-6.75c17.59,4.47,58.65,12.37,95.73.64a6.58,6.58,0,0,1,8.64,6.22v43.89a6.55,6.55,0,0,0,2.49,5.15c7.67,6,31.63,24.82,51.81,39a6.57,6.57,0,0,1-4.47,11.92c-35.63-3.86-92.79-8.35-105.06.92a6,6,0,0,1-5.77,1.07C1952,1056.15,1921.78,1047.62,1866.93,1054.72Z" transform="translate(-380.88 -718)"/><path class="cls-2" d="M1809.08,1534.64s-33.85,134-18.36,177.17,133.31,73,167.49,16.38c0,0,8.4-83.38-17.38-120.6S1912.19,1525.7,1809.08,1534.64Z" transform="translate(-380.88 -718)"/><path class="cls-2" d="M2117.5,1537.62s32.68,134,17.72,177.17-128.71,73-161.7,16.38c0,0-8.11-83.38,16.78-120.6S2018,1528.68,2117.5,1537.62Z" transform="translate(-380.88 -718)"/><path class="cls-1" d="M1827.16,1760.54c21.89,10.22,52,18.92,87.07,14.91a30.06,30.06,0,0,1,33.28,33.08c-3.66,33.79-12.79,82.63-35.54,124.47a24,24,0,0,0-2.81,8.59c-2.58,20.82-13.2,106.5-15.81,123.48-3,19.35-20.26,28.29-34.25,14.89s-54.06-25.31-72.44-23.82,1-32.76-6.47-95.29c-4.81-40.41.22-122.41,4.38-175.38A30,30,0,0,1,1827.16,1760.54Z" transform="translate(-380.88 -718)"/><path class="cls-1" d="M1782.74,2067.65s-17.44,55.09-16,108.69,29.78,171.22,29.78,189.09,8.93,74.44,8.93,74.44,42.71,19.36,58.58,10.42c0,0-2.32-93.8,9-126.55,0,0,34.18-86.42,0-172.71C1873.09,2151,1868.12,2076.59,1782.74,2067.65Z" transform="translate(-380.88 -718)"/><path class="cls-1" d="M1805,2463.48h0a6.85,6.85,0,0,1,9.5-6.33c9.84,4.19,25.34,9.37,36.66,6.54l9.34-2.33A6.86,6.86,0,0,1,1869,2468v31.49a6.84,6.84,0,0,1-8.6,6.63c-11.44-3-31.3-8.55-40.54-12.66l-9.6-4.27a6.85,6.85,0,0,1-4.06-5.84l-1.21-19.45C1805,2463.76,1805,2463.62,1805,2463.48Z" transform="translate(-380.88 -718)"/><path class="cls-1" d="M1815.15,2492.09a13.4,13.4,0,0,0-14.57,4.36c-9.7,12-29.24,34.91-40.84,39.26-15.88,5.95-37.72,5.95-37.72,15.88,0,1.16.06,2.24.15,3.27A13.45,13.45,0,0,0,1735,2567c9.06.41,22.61.74,29.21-.51,10.42-2,79.9-9.43,91.81-6.45s32.26,0,29.28-14.4c-2.08-10.08-8.79-24.54-12.63-32.3a13.43,13.43,0,0,0-8.46-7C1853.26,2503.31,1829.18,2496.56,1815.15,2492.09Z" transform="translate(-380.88 -718)"/><path class="cls-1" d="M2102.53,1759.67c-21.08,9.42-49.19,17.12-81.77,13.95-20.61-2-37.88,15.13-35.52,35.7,3.82,33.28,12.9,79.87,34.49,120.22a33,33,0,0,1,3.72,11.46c2.87,23.16,13.07,105.37,15.63,122,3,19.36,6.27,41.69,20.25,28.29s68.05-38.71,86.43-37.22-1-32.76,6.47-95.29c4.72-39.65,0-119.35-4.15-172.38C2146.35,1764,2123,1750.53,2102.53,1759.67Z" transform="translate(-380.88 -718)"/><path class="cls-1" d="M2145.76,2065.55s21.36,55.08,19.87,108.68-29.78,171.22-29.78,189.09-8.93,74.44-8.93,74.44-42.71,19.36-58.58,10.43c0,0,2.32-93.8-9-126.56,0,0-34.18-86.42,0-172.71C2059.33,2148.92,2060.38,2074.48,2145.76,2065.55Z" transform="translate(-380.88 -718)"/><path class="cls-1" d="M2127.47,2461.37h0a6.84,6.84,0,0,0-9.5-6.32c-9.84,4.18-25.34,9.36-36.66,6.54l-9.34-2.34a6.86,6.86,0,0,0-8.52,6.65v31.49A6.84,6.84,0,0,0,2072,2504c11.44-3,31.3-8.55,40.54-12.66l9.6-4.26a6.87,6.87,0,0,0,4.06-5.84l1.21-19.46C2127.46,2461.66,2127.47,2461.51,2127.47,2461.37Z" transform="translate(-380.88 -718)"/><path class="cls-1" d="M2121.19,2497.82a13.4,13.4,0,0,1,14.57,4.36c9.7,12,29.24,34.91,40.84,39.26,15.88,5.95,37.72,5.95,37.72,15.88,0,1.15-.06,2.24-.15,3.27a13.43,13.43,0,0,1-12.83,12.12c-9.06.42-22.61.75-29.21-.5-10.42-2-79.9-9.43-91.81-6.46s-32.26,0-29.28-14.39c2.08-10.08,8.79-24.54,12.63-32.3a13.43,13.43,0,0,1,8.46-7C2083.08,2509,2107.16,2502.29,2121.19,2497.82Z" transform="translate(-380.88 -718)"/><path class="cls-1" d="M1771.75,1079.17c-23.78,11.53-76.81,47.77-76.89,141.78a5,5,0,0,0,6.17,4.86c17.28-4,65.9-16.2,75-28.4,11.16-14.89,13.93-46.16,7-65.51-5.09-14.15-6.57-34.66-4.2-47.29A5,5,0,0,0,1771.75,1079.17Z" transform="translate(-380.88 -718)"/><path class="cls-1" d="M1775.33,1205.6s-68.63,26.05-80.47,31.26S1651,1314,1651,1326.78s49.13,56.74,55.09,52.27,28.29-44.67,41.69-63.28,27.83-43.17,31-67.74S1783.72,1202.4,1775.33,1205.6Z" transform="translate(-380.88 -718)"/><path class="cls-1" d="M1651.44,1342a6.44,6.44,0,0,0-8.81-.66,137.39,137.39,0,0,1-15.44,10.92l0,0a6.48,6.48,0,0,0,.78,11.5c11.27,4.91,27.09,12.76,31.28,19.74,4.8,8,23.37,15.62,33.5,19.3a6.45,6.45,0,0,0,8.44-4.49l2.83-11a6.46,6.46,0,0,0-4.87-7.92c-3.64-.82-8.87-3-16.08-8.2C1670.83,1362.49,1657.88,1349,1651.44,1342Z" transform="translate(-380.88 -718)"/><path class="cls-1" d="M1626.07,1369.66a14.09,14.09,0,0,0-15.62,3.41c-7.84,8.39-22.7,28.25-36.12,68.51l-19,56.92a13.17,13.17,0,0,1-1,2.22l-43,79.94a14.08,14.08,0,0,0,1.32,15.39c6.37,8.12,18.36,20.35,35.71,25.55a14,14,0,0,0,16.83-7.91c5.56-12.86,19.42-38.37,53.36-79.76.24-.29.47-.6.69-.91,3.8-5.52,40.73-59.22,56.26-82.5,16.38-24.57,21.59-38.71,21.59-38.71s3-6-11.91-6.7C1672.91,1404.49,1644.69,1377.25,1626.07,1369.66Z" transform="translate(-380.88 -718)"/><path class="cls-1" d="M1496.77,1609a12.05,12.05,0,0,1-4.66,2c-7.45,1.41-29.07,6.28-37.63,16.67-10.42,12.66-23.08,32-29.78,35.74s-8.93,10.42,0,11.16,20.85-3,22.34-7.44,3,2.23-3,11.16-35,50.63-35.73,58.07,11.91,14.89,18.61,3.72,22.3-40.94,24.55-36.48-29,63.28-27.53,68.49,12.65,10.42,18.61,0,33.5-60.3,35-56.57-22.34,59.55-20.85,67,6,8.94,13.4,0,31.27-67.74,31.27-61.78-3.72,55.83,0,56.57,8.93.46,13.4-18c3.45-14.25,6-33.46,7-41.49a11.68,11.68,0,0,1,2.86-6.38c5.54-6.26,19.11-23.2,24.38-44.29,2.49-10,4.16-16.93,5.27-21.77a11.88,11.88,0,0,0-6.7-13.51,89.54,89.54,0,0,1-23.13-15.34C1509.41,1602.84,1504.41,1603.62,1496.77,1609Z" transform="translate(-380.88 -718)"/><path class="cls-1" d="M2158.16,1087c23.78,11.52,76.81,47.76,76.89,141.78a5,5,0,0,1-6.17,4.86c-17.28-4-65.9-16.21-75.05-28.4-11.16-14.89-13.93-46.16-7-65.51,5.09-14.15,6.57-34.67,4.2-47.3A5,5,0,0,1,2158.16,1087Z" transform="translate(-380.88 -718)"/><path class="cls-1" d="M2154.58,1213.43s68.63,26.06,80.47,31.27,43.85,77.09,43.85,89.91-49.13,56.74-55.09,52.28-28.29-44.67-41.69-63.28-27.83-43.18-31-67.74S2146.19,1210.24,2154.58,1213.43Z" transform="translate(-380.88 -718)"/><path class="cls-1" d="M2278.47,1349.83a6.43,6.43,0,0,1,8.81-.66,138.69,138.69,0,0,0,15.44,10.92l.05,0a6.48,6.48,0,0,1-.78,11.5c-11.27,4.9-27.09,12.76-31.28,19.73-4.8,8-23.37,15.63-33.5,19.3a6.45,6.45,0,0,1-8.44-4.49l-2.83-11a6.46,6.46,0,0,1,4.87-7.92c3.64-.81,8.87-3,16.08-8.19C2259.08,1370.33,2272,1356.86,2278.47,1349.83Z" transform="translate(-380.88 -718)"/><path class="cls-1" d="M2303.84,1377.5a14.07,14.07,0,0,1,15.62,3.41c7.84,8.39,22.7,28.25,36.12,68.51l19,56.91a13.27,13.27,0,0,0,1,2.23l43,79.93a14.1,14.1,0,0,1-1.32,15.4c-6.37,8.12-18.36,20.35-35.71,25.55a14,14,0,0,1-16.83-7.92c-5.56-12.86-19.42-38.36-53.36-79.75-.24-.3-.47-.6-.69-.91-3.8-5.53-40.73-59.22-56.26-82.51-16.38-24.56-21.59-38.71-21.59-38.71s-3-6,11.91-6.7C2257,1412.33,2285.22,1385.08,2303.84,1377.5Z" transform="translate(-380.88 -718)"/><path class="cls-1" d="M2433.14,1616.88a12.05,12.05,0,0,0,4.66,2c7.45,1.4,29.07,6.27,37.63,16.67,10.42,12.65,23.08,32,29.78,35.73s8.93,10.42,0,11.17-20.85-3-22.34-7.45-3,2.24,3,11.17,35,50.62,35.73,58.07-11.91,14.89-18.61,3.72-22.3-40.94-24.55-36.48,29,63.28,27.53,68.49-12.65,10.42-18.61,0-33.5-60.3-35-56.58,22.34,59.56,20.85,67-6,8.94-13.4,0-31.27-67.74-31.27-61.79,3.72,55.84,0,56.58-8.93.45-13.4-18c-3.45-14.25-6-33.47-7-41.5a11.68,11.68,0,0,0-2.86-6.37c-5.54-6.26-19.11-23.2-24.38-44.3-2.49-10-4.16-16.92-5.27-21.76a11.88,11.88,0,0,1,6.7-13.51,89.35,89.35,0,0,0,23.13-15.35C2420.5,1610.68,2425.5,1611.46,2433.14,1616.88Z" transform="translate(-380.88 -718)"/><path class="cls-1" d="M2040.08,848h-2.51s.5-58.07-20.14-73c-19.29-13.92-35.51-20-50.08-20.76v-.08c-.5,0-1,0-1.51,0s-1,0-1.51,0v.08c-14.58.74-30.79,6.84-50.08,20.76-20.64,14.89-20.14,73-20.14,73h-2.52c-2.51,0-12.58-3.47-11.57,27.29s20.63,27.3,20.63,27.3-1,14.39,6,27.3c6.26,11.44,48.68,13.13,58.19,13.36v0l1,0,1,0v0c9.51-.23,51.93-1.92,58.18-13.36,7-12.91,6-27.3,6-27.3s19.63,3.48,20.64-27.3S2042.6,848,2040.08,848Z" transform="translate(-380.88 -718)"/></svg>