<svg id="Layer_1" data-name="Layer 1" xmlns="http://www.w3.org/2000/svg" viewBox="0 0 1424.44 2327.21"><defs><style>.cls-1{fill:#8dfcee;}.cls-2{fill:#38e0d7;}.cls-3{fill:#00c9c5;}</style></defs><title>Body02</title><path class="cls-1" d="M1643.76,786.87c15.24-26.67,4.81-77.11-15.23-80,0,0-161-25.9-200.28-1.11C1389,681,1228,706.86,1228,706.86c-20,2.9-30.48,53.34-15.24,80s-11.43,131.44,0,158.11,36.2,141,30.48,234.31-5.71,97.15,61,93.34c57.44-3.28,109.19,66.92,122.43,86.43v5s.58-.93,1.65-2.56c1.07,1.63,1.65,2.56,1.65,2.56v-5c13.23-19.51,65-89.71,122.43-86.43,66.67,3.81,66.67,0,61-93.34s19-207.64,30.47-234.31S1628.53,813.54,1643.76,786.87Z" transform="translate(-715.95 -296.93)"/><path class="cls-2" d="M1302.76,681.46c-9,1.17-13.29-10.77-5.51-15.49,27.36-16.64,58.17-38.15,60.26-51.75,2.57-16.68,1.67-42,.82-56.75a8.38,8.38,0,0,1,10.42-8.64c22.51,5.72,75,15.82,122.49.82a8.41,8.41,0,0,1,11,8v56.14a8.36,8.36,0,0,0,3.19,6.59c9.81,7.75,40.47,31.77,66.29,49.88,7.14,5,2.94,16.19-5.72,15.25-45.59-4.94-118.72-10.68-134.41,1.18a7.72,7.72,0,0,1-7.39,1.37C1411.59,683.29,1372.94,672.38,1302.76,681.46Z" transform="translate(-715.95 -296.93)"/><path class="cls-2" d="M1228.74,1295.49s-43.31,171.44-23.49,226.69,170.57,93.34,214.29,21c0,0,10.75-106.68-22.23-154.3S1360.66,1284.06,1228.74,1295.49Z" transform="translate(-715.95 -296.93)"/><path class="cls-2" d="M1623.35,1299.3S1665.17,1470.74,1646,1526s-164.68,93.34-206.9,21c0,0-10.37-106.68,21.47-154.3S1496,1287.87,1623.35,1299.3Z" transform="translate(-715.95 -296.93)"/><path class="cls-3" d="M1251.88,1584.51c28,13.08,66.48,24.21,111.4,19.09a38.44,38.44,0,0,1,42.57,42.32c-4.68,43.23-16.36,105.72-45.47,159.25a31,31,0,0,0-3.59,11c-3.3,26.64-16.89,136.26-20.24,158-3.8,24.76-25.91,36.19-43.81,19s-69.17-32.39-92.68-30.48,1.24-41.91-8.28-121.92c-6.15-51.69.28-156.61,5.6-224.39C1199.48,1589.7,1227.6,1573.17,1251.88,1584.51Z" transform="translate(-715.95 -296.93)"/><path class="cls-3" d="M1195,1977.46s-22.31,70.48-20.4,139.06,38.09,219.07,38.09,241.92,11.43,95.25,11.43,95.25,54.65,24.77,74.95,13.34c0,0-3-120,11.53-161.92,0,0,43.73-110.58,0-221C1310.64,2084.13,1304.28,1988.89,1195,1977.46Z" transform="translate(-715.95 -296.93)"/><path class="cls-3" d="M1223.46,2483.9h0a8.75,8.75,0,0,1,12.15-8.1c12.6,5.35,32.43,12,46.91,8.37l12-3a8.78,8.78,0,0,1,10.9,8.52V2530a8.75,8.75,0,0,1-11,8.49c-14.64-3.88-40.05-10.95-51.87-16.2l-12.28-5.46a8.77,8.77,0,0,1-5.19-7.47l-1.56-24.9C1223.47,2484.26,1223.46,2484.08,1223.46,2483.9Z" transform="translate(-715.95 -296.93)"/><path class="cls-3" d="M1236.5,2520.5a17.17,17.17,0,0,0-18.64,5.58c-12.4,15.38-37.41,44.66-52.25,50.23-20.32,7.62-48.26,7.62-48.26,20.32,0,1.48.07,2.87.2,4.18a17.19,17.19,0,0,0,16.41,15.52c11.59.53,28.93,1,37.37-.65,13.33-2.54,102.23-12.07,117.47-8.26s41.27,0,37.46-18.41c-2.67-12.9-11.25-31.4-16.16-41.33a17.13,17.13,0,0,0-10.83-8.94C1285.27,2534.86,1254.45,2526.23,1236.5,2520.5Z" transform="translate(-715.95 -296.93)"/><path class="cls-3" d="M1604.2,1583.41c-27,12-62.94,21.89-104.62,17.84-26.37-2.56-48.47,19.37-45.45,45.68,4.88,42.58,16.51,102.19,44.12,153.82a42,42,0,0,1,4.77,14.66c3.66,29.63,16.72,134.82,20,156,3.81,24.77,8,53.34,25.92,36.2s87.06-49.53,110.58-47.63-1.25-41.91,8.28-121.91c6-50.73,0-152.71-5.31-220.55C1660.26,1589,1630.37,1571.71,1604.2,1583.41Z" transform="translate(-715.95 -296.93)"/><path class="cls-3" d="M1659.51,1974.76s27.33,70.48,25.42,139.06-38.1,219.07-38.1,241.93S1635.4,2451,1635.4,2451s-54.64,24.77-74.94,13.34c0,0,3-120-11.53-161.92,0,0-43.73-110.58,0-221C1548.93,2081.44,1550.27,1986.19,1659.51,1974.76Z" transform="translate(-715.95 -296.93)"/><path class="cls-3" d="M1636.1,2481.2h0a8.74,8.74,0,0,0-12.15-8.09c-12.59,5.35-32.42,12-46.9,8.36l-12-3a8.78,8.78,0,0,0-10.9,8.52v40.28a8.76,8.76,0,0,0,11,8.49c14.63-3.88,40-10.94,51.86-16.2l12.29-5.46a8.76,8.76,0,0,0,5.19-7.47l1.56-24.89C1636.1,2481.56,1636.1,2481.38,1636.1,2481.2Z" transform="translate(-715.95 -296.93)"/><path class="cls-3" d="M1628.08,2527.83a17.17,17.17,0,0,1,18.64,5.58c12.4,15.38,37.4,44.66,52.25,50.23,20.32,7.62,48.25,7.62,48.25,20.32,0,1.48-.06,2.87-.19,4.18a17.19,17.19,0,0,1-16.41,15.52c-11.59.53-28.93,1-37.37-.65-13.33-2.54-102.23-12.07-117.47-8.26s-41.27,0-37.46-18.41c2.66-12.9,11.25-31.4,16.16-41.33a17.13,17.13,0,0,1,10.83-8.94C1579.31,2542.19,1610.12,2533.56,1628.08,2527.83Z" transform="translate(-715.95 -296.93)"/><path class="cls-3" d="M1181,712.74c-30.42,14.75-98.28,61.11-98.38,181.4a6.43,6.43,0,0,0,7.9,6.22c22.11-5.13,84.31-20.74,96-36.34,14.29-19,17.83-59,8.92-83.82-6.52-18.1-8.41-44.35-5.37-60.51A6.41,6.41,0,0,0,1181,712.74Z" transform="translate(-715.95 -296.93)"/><path class="cls-3" d="M1185.56,874.5s-87.81,33.33-103,40-56.1,98.64-56.1,115,62.86,72.6,70.48,66.88,36.2-57.15,53.34-81,35.6-55.24,39.71-86.67S1196.3,870.41,1185.56,874.5Z" transform="translate(-715.95 -296.93)"/><path class="cls-3" d="M1027.05,1049a8.25,8.25,0,0,0-11.28-.85,175,175,0,0,1-19.75,14l-.06,0a8.29,8.29,0,0,0,1,14.71c14.43,6.28,34.67,16.33,40,25.26,6.14,10.24,29.89,20,42.86,24.69a8.26,8.26,0,0,0,10.8-5.75l3.61-14a8.27,8.27,0,0,0-6.22-10.14c-4.66-1-11.35-3.86-20.57-10.48C1051.86,1075.23,1035.29,1058,1027.05,1049Z" transform="translate(-715.95 -296.93)"/><path class="cls-3" d="M994.59,1084.41a18,18,0,0,0-20,4.36c-10,10.74-29,36.15-46.21,87.66l-24.28,72.82a17.4,17.4,0,0,1-1.23,2.84l-55,102.28a18,18,0,0,0,1.68,19.7c8.16,10.38,23.5,26,45.69,32.69a18,18,0,0,0,21.54-10.13c7.11-16.46,24.84-49.09,68.27-102.05.31-.37.6-.76.88-1.16,4.87-7.07,52.12-75.77,72-105.56,21-31.43,27.62-49.53,27.62-49.53s3.81-7.62-15.24-8.57C1054.52,1129,1018.41,1094.11,994.59,1084.41Z" transform="translate(-715.95 -296.93)"/><path class="cls-3" d="M829.15,1390.68a15.1,15.1,0,0,1-6,2.53c-9.53,1.8-37.19,8-48.14,21.34-13.34,16.19-29.53,41-38.1,45.72s-11.43,13.33,0,14.28,26.67-3.81,28.57-9.52,3.81,2.85-3.81,14.28S717,1544.08,716,1553.61s15.24,19.05,23.82,4.76,28.53-52.39,31.41-46.67-37.13,81-35.22,87.63,16.19,13.33,23.81,0,42.86-77.15,44.76-72.39-28.57,76.2-26.67,85.72,7.62,11.43,17.15,0,40-86.67,40-79.05-4.76,71.43,0,72.38,11.43.58,17.15-23c4.41-18.24,7.68-42.82,8.95-53.09a15,15,0,0,1,3.66-8.16c7.09-8,24.45-29.69,31.2-56.67,3.18-12.73,5.32-21.66,6.74-27.85a15.2,15.2,0,0,0-8.57-17.29,114.44,114.44,0,0,1-29.6-19.63C845.32,1382.75,838.94,1383.75,829.15,1390.68Z" transform="translate(-715.95 -296.93)"/><path class="cls-3" d="M1675.38,722.77c30.41,14.74,98.27,61.11,98.37,181.4a6.43,6.43,0,0,1-7.9,6.22c-22.11-5.13-84.31-20.74-96-36.34-14.29-19-17.83-59.06-8.92-83.82,6.52-18.1,8.41-44.35,5.38-60.51A6.4,6.4,0,0,1,1675.38,722.77Z" transform="translate(-715.95 -296.93)"/><path class="cls-3" d="M1670.79,884.52s87.81,33.34,103,40,56.1,98.63,56.1,115-62.86,72.59-70.48,66.88-36.19-57.15-53.34-81-35.6-55.24-39.71-86.68S1660.05,880.44,1670.79,884.52Z" transform="translate(-715.95 -296.93)"/><path class="cls-3" d="M1829.31,1059a8.23,8.23,0,0,1,11.27-.85,175,175,0,0,0,19.75,14l.06,0a8.29,8.29,0,0,1-1,14.71c-14.43,6.28-34.67,16.32-40,25.25-6.14,10.24-29.89,20-42.86,24.7a8.26,8.26,0,0,1-10.8-5.75l-3.61-14a8.26,8.26,0,0,1,6.22-10.13c4.66-1,11.35-3.86,20.58-10.48C1804.49,1085.26,1821.06,1068,1829.31,1059Z" transform="translate(-715.95 -296.93)"/><path class="cls-3" d="M1861.76,1094.44a18,18,0,0,1,20,4.35c10,10.75,29,36.16,46.21,87.67l24.27,72.81a18,18,0,0,0,1.23,2.85l55,102.27a18,18,0,0,1-1.68,19.7c-8.16,10.39-23.5,26-45.69,32.69a17.94,17.94,0,0,1-21.54-10.13c-7.11-16.45-24.84-49.08-68.27-102-.31-.38-.6-.76-.88-1.16-4.86-7.07-52.12-75.77-72-105.56-21-31.44-27.62-49.53-27.62-49.53s-3.81-7.62,15.24-8.57C1801.84,1139,1837.94,1104.14,1861.76,1094.44Z" transform="translate(-715.95 -296.93)"/><path class="cls-3" d="M2027.2,1400.71a15.1,15.1,0,0,0,6,2.53c9.53,1.8,37.19,8,48.14,21.33,13.34,16.2,29.53,41,38.1,45.72s11.43,13.34,0,14.29-26.67-3.81-28.57-9.53-3.81,2.86,3.81,14.29,44.76,64.77,45.72,74.29-15.24,19-23.81,4.77-28.54-52.39-31.42-46.67,37.13,81,35.23,87.62-16.2,13.34-23.82,0-42.86-77.15-44.76-72.38,28.57,76.19,26.67,85.72-7.62,11.43-17.15,0-40-86.68-40-79.06,4.76,71.44,0,72.39-11.43.58-17.15-23c-4.41-18.23-7.68-42.81-9-53.09a15,15,0,0,0-3.66-8.15c-7.09-8-24.45-29.69-31.2-56.68-3.18-12.73-5.32-21.65-6.74-27.84a15.19,15.19,0,0,1,8.57-17.29,114.44,114.44,0,0,0,29.6-19.63C2011,1392.78,2017.42,1393.78,2027.2,1400.71Z" transform="translate(-715.95 -296.93)"/><path class="cls-3" d="M1524.3,416.94h-3.22s.64-74.29-25.76-93.34c-24.69-17.81-45.43-25.63-64.08-26.57v-.1c-.64,0-1.29,0-1.93.05s-1.3-.05-1.94-.05v.1c-18.64.94-39.39,8.76-64.08,26.57-26.4,19-25.76,93.34-25.76,93.34h-3.22c-3.22,0-16.1-4.44-14.81,34.92s26.41,34.93,26.41,34.93-1.29,18.41,7.72,34.92c8,14.65,62.28,16.8,74.45,17.1v.05l1.23,0,1.22,0v-.05c12.17-.3,66.45-2.45,74.45-17.1,9-16.51,7.73-34.92,7.73-34.92s25.11,4.44,26.4-34.93S1527.52,416.94,1524.3,416.94Z" transform="translate(-715.95 -296.93)"/></svg>