<svg id="Layer_1" data-name="Layer 1" xmlns="http://www.w3.org/2000/svg" viewBox="0 0 1136.48 2361.39"><defs><style>.cls-1{fill:#00c9c5;}.cls-2{fill:#38e0d7;}.cls-3{fill:#8dfcee;}</style></defs><title>Body01</title><path class="cls-1" d="M1183.93,794.43a13.91,13.91,0,0,1,18.32,14.32,170,170,0,0,0,1,29.45s21.16,127.53,23.35,138c1.54,7.41-16.2,45.61-26.7,67.3-3.52,7.28-12.58,10.23-19.46,6-20.9-12.86-46.11-15.34-63.1-15.24a13.78,13.78,0,0,1-13.35-17.37q1.35-5,2.55-10.34c13.09-57.82,12.45-136.18,11.35-171.07a24.57,24.57,0,0,1,16.57-24Z" transform="translate(-863.76 -299.35)"/><path class="cls-2" d="M1428.54,577.07l-41.07-11.91a17.1,17.1,0,0,0-21.87,16.42v45.95a17.11,17.11,0,0,0,10.85,15.92c12.79,5.08,34.64,12.23,52.85,10.64l1.68,0v.17l2.46-.08,2.57.08v-.17l1.36,0c17.29,1.59,38-5.52,50.23-10.6A17,17,0,0,0,1498,627.74V581.9a17.1,17.1,0,0,0-22.09-16.36L1438.29,577A17,17,0,0,1,1428.54,577.07Z" transform="translate(-863.76 -299.35)"/><path class="cls-1" d="M1524.67,426.34c0-35.53-6.46-75.9-6.46-75.9-18.57-57.33-84.78-50.87-84.78-50.87s-66.21-6.46-84.78,50.87c0,0-6.46,40.37-6.46,75.9,0,0-20.19-10.5-9.69,29.88,0,0,2.42,35.52,21.8,35.52,0,0-1.62,34.72,9.69,46l50.87,26.64,18.57,4,18.57-4,50.86-26.64c11.31-11.31,9.69-46,9.69-46,19.38,0,21.8-35.52,21.8-35.52C1544.85,415.84,1524.67,426.34,1524.67,426.34Z" transform="translate(-863.76 -299.35)"/><path class="cls-2" d="M1493.66,615.76l-58.54,5.71a10.58,10.58,0,0,1-1.78,0l-58.53-5.71a9.06,9.06,0,0,0-7.29,2.56,272,272,0,0,1-61.58,44.52c-8.18,4.33-5.36,16.73,3.88,17.21,42.69,2.19,105.4,6.45,110.69,12.79,3.76,4.52,7.51,4.83,10.45,3.87a10.45,10.45,0,0,1,6.54,0c2.94,1,6.7.65,10.46-3.87,5.28-6.34,68-10.6,110.69-12.79,9.24-.48,12.06-12.88,3.88-17.21A271.76,271.76,0,0,1,1501,618.32,9.07,9.07,0,0,0,1493.66,615.76Z" transform="translate(-863.76 -299.35)"/><path class="cls-3" d="M1618.06,705a38.8,38.8,0,0,0-33.26-16.31c-13,.51-32.06,1.36-56.73,2.65a517.47,517.47,0,0,0-75.93,9.47,39.88,39.88,0,0,0-12.18,4.74,21.06,21.06,0,0,1-4.49,2.09v-2.53a2.49,2.49,0,1,1-4.92,0v2.53a21.06,21.06,0,0,1-4.49-2.09,40,40,0,0,0-12.18-4.75,519.3,519.3,0,0,0-75.93-9.46c-24.67-1.29-43.78-2.14-56.74-2.65A38.83,38.83,0,0,0,1248,705c-18,25.37-46.17,75.82-32.58,128.87a36.05,36.05,0,0,1,.76,3.72c1.93,13.49,14,96.64,21,125.35a37.49,37.49,0,0,0,2.05,6.11c5.62,12.94,30.33,74,28.15,142.84a25.12,25.12,0,0,0,18.58,25.12c34.19,9.17,95.26,24.38,133,9.46,7.82-3.1,20.42-3.53,28.23-.42,38.46,15.3,94.8-1.51,128.84-11.76a35,35,0,0,0,24.88-33.8c-.59-64.63,20.75-118.9,26-131.3a40,40,0,0,0,2.1-6.23c7-28.71,19-111.88,21-125.37a33.59,33.59,0,0,1,.76-3.72C1664.24,780.85,1636.07,730.4,1618.06,705Z" transform="translate(-863.76 -299.35)"/><path class="cls-3" d="M1435.48,695.45V695a.24.24,0,0,0,0,.07v.31A.13.13,0,0,0,1435.48,695.45Z" transform="translate(-863.76 -299.35)"/><path class="cls-1" d="M1251,663.91c-7.12-8.27-144-2-137.7,144.1,0,0,67.83-7.07,87.81-45.92S1236.43,684.5,1251,663.91Z" transform="translate(-863.76 -299.35)"/><path class="cls-3" d="M1282.84,1143c30.69,12.56,96.53,34,148.29,12.54a12.23,12.23,0,0,1,10.24.48c15,7.63,64.06,25.14,144.45-17.43a12.8,12.8,0,0,1,18.81,10.31c2.6,35.23,8.24,105.82,12.73,122.3.11.41.19.79.26,1.21l8.39,52.41a12.78,12.78,0,0,1-10.41,14.63c-47.71,8.3-223.95,34.71-366.95.82a12.84,12.84,0,0,1-9.66-15.18c6.61-30.71,23.45-113.42,26.29-170.94A12.76,12.76,0,0,1,1282.84,1143Z" transform="translate(-863.76 -299.35)"/><path class="cls-2" d="M1634.29,1372.41a21.94,21.94,0,0,0-24.86-17.35c-37.61,5.84-118.53,17.22-174.71,16.61v0l-1.9,0-1.9,0v0c-56.18.61-137.1-10.77-174.71-16.61a21.94,21.94,0,0,0-24.86,17.35l-9.59,47.26A22,22,0,0,0,1242,1446c54.84,3.12,179.76,15.82,183.25,66.83h15.12c3.49-51,128.41-63.71,183.25-66.83a22,22,0,0,0,20.25-26.3Z" transform="translate(-863.76 -299.35)"/><path class="cls-1" d="M1211.78,1464.35s199.27,3.63,208.64,67.82l-41.5,284.63-18.16,79.93c.14,22.87-77.65-8.1-127.62-38.84C1233.14,1857.89,1175.13,1650,1211.78,1464.35Z" transform="translate(-863.76 -299.35)"/><path class="cls-1" d="M1233.14,1867.58s70.32,36.55,86.94,41c8,2.11,17,4.54,24.58,5.14a16.33,16.33,0,0,1,14.89,17.53c-1.88,25.61-6.64,64.64-18.58,85.17a16.48,16.48,0,0,1-10.81,7.81c-21.47,4.63-90.26,15.94-97-26.92C1233.14,1997.26,1224.21,1845.7,1233.14,1867.58Z" transform="translate(-863.76 -299.35)"/><path class="cls-1" d="M1220.45,2031.89c-9,49.65-20.73,145.48-1.53,239.66a11.29,11.29,0,0,1,.19,1.28L1233.5,2420a14,14,0,0,0,14,12.6c10,0,24.33,1.09,36.4,6.25,8.79,3.76,18.69-1.8,19.44-11.33,3.22-41.27,10.08-120.68,16.29-138.41,8.48-24.23,29.07-58.14,20.59-157.45l-4.77-83.47a13.3,13.3,0,0,0-.4-2.59l-.56-2.25a14,14,0,0,0-17.37-10.05c-10,2.78-23.43,5.8-34.07,5.4-12.22-.46-27.67-3.9-39.59-14.78C1235.38,2016.62,1222.38,2021.19,1220.45,2031.89Z" transform="translate(-863.76 -299.35)"/><path class="cls-1" d="M1251.22,2442.07c13.2.24,31.56,2.8,44.13,13.69a17.84,17.84,0,0,1,6.06,13.49v19.69a18,18,0,0,1-25.54,16.24c-10.16-4.7-21.71-9.49-31.43-12.09a18.08,18.08,0,0,1-13.46-19.63l2-15.68A18,18,0,0,1,1251.22,2442.07Z" transform="translate(-863.76 -299.35)"/><path class="cls-1" d="M1219.05,2496.25s-31.49,64.19-61.77,81.15l-30.28,17s-37.54,19.37-17,36.33,46,33.91,67.82,24.22,48.45-31.49,56.93-43.6,54.5-16.55,66.61-34.31,7.15-45.38-9.69-54.1S1233.59,2491.41,1219.05,2496.25Z" transform="translate(-863.76 -299.35)"/><path class="cls-1" d="M1656.52,1467.35s-199.27,3.64-208.64,67.83l41.5,284.62,18.16,79.93c-.14,22.87,77.65-8.1,127.62-38.84C1635.16,1860.89,1693.17,1653,1656.52,1467.35Z" transform="translate(-863.76 -299.35)"/><path class="cls-1" d="M1635.16,1870.58s-70.32,36.55-86.94,41c-8,2.11-17,4.55-24.58,5.15a16.32,16.32,0,0,0-14.89,17.53c1.88,25.6,6.64,64.64,18.58,85.16a16.49,16.49,0,0,0,10.81,7.82c21.47,4.62,90.26,15.93,97-26.93C1635.16,2000.26,1644.09,1848.7,1635.16,1870.58Z" transform="translate(-863.76 -299.35)"/><path class="cls-1" d="M1647.86,2034.9c9,49.64,20.72,145.47,1.52,239.66a11,11,0,0,0-.19,1.28L1634.8,2423a14,14,0,0,1-14,12.6c-10,0-24.33,1.1-36.4,6.26-8.79,3.75-18.69-1.81-19.44-11.34-3.22-41.27-10.08-120.68-16.29-138.41-8.47-24.23-29.06-58.14-20.59-157.45l4.77-83.47a14.23,14.23,0,0,1,.4-2.59l.56-2.25a14,14,0,0,1,17.38-10c9.94,2.77,23.42,5.79,34.06,5.39,12.22-.46,27.67-3.9,39.59-14.78C1632.92,2019.62,1645.93,2024.19,1647.86,2034.9Z" transform="translate(-863.76 -299.35)"/><path class="cls-1" d="M1617.08,2445.08c-13.2.23-31.56,2.79-44.13,13.68a17.86,17.86,0,0,0-6.06,13.49v19.69a18,18,0,0,0,25.55,16.24c10.15-4.69,21.7-9.49,31.42-12.09a18.07,18.07,0,0,0,13.46-19.62l-2-15.68A18,18,0,0,0,1617.08,2445.08Z" transform="translate(-863.76 -299.35)"/><path class="cls-1" d="M1649.25,2499.25s31.49,64.2,61.77,81.15l30.28,17s37.54,19.38,17,36.33-46,33.92-67.82,24.23-48.45-31.49-56.93-43.61-54.5-16.54-66.61-34.31-7.15-45.38,9.69-54.1S1634.72,2494.41,1649.25,2499.25Z" transform="translate(-863.76 -299.35)"/><path class="cls-1" d="M1112.46,994.42s-12.1,35.13-25.42,55.71c0,0,73.88-8.47,98.1,31.49l26.64-69.43,8.48-18.11S1174.21,1022.27,1112.46,994.42Z" transform="translate(-863.76 -299.35)"/><path class="cls-1" d="M1121.49,1066.93s-32-4.68-49-2.26c0,0-37.54,27.86-49.66,127.17,0,0-19.37,103-37.54,139.28,0,0,58.67,1.21,68.09,26.65,0,0,57.87-115.76,80.88-146.9s54.17-108.07,29.44-123.54S1131.69,1068.19,1121.49,1066.93Z" transform="translate(-863.76 -299.35)"/><path class="cls-1" d="M999.55,1301.33s-17.28,38.27-20.31,43.12c0,0,53.29-3,72.07,22.4,0,0,11.4-27.87,18.18-41.16a142,142,0,0,1-42.41-10.31C1005.89,1306.29,999.55,1301.33,999.55,1301.33Z" transform="translate(-863.76 -299.35)"/><path class="cls-1" d="M981.91,1352.81c-2.66-.11-10.58,6.6-12.42,8.53-10.53,11-43.83,45.86-56.86,59.41-15.14,15.74-53.29,33.91-48.45,42.39s16.35,8.48,32.1,0l.47-.26a9.33,9.33,0,0,1,13,12c-12.12,27.65-30.44,69.13-34,75.5-5.45,9.69,3.63,15.75,8.48,15.75s40-61.77,41.18-58.14-33.31,76.91-28.47,81.75,18.17,8.48,21.81,0,30.27-76.9,35.72-73.88-21.8,84.78-16.95,88.42,13.93,8.48,20-10.9,18.78-76.31,25.44-75.7.6,65.4,4.24,67.22,17,7.27,17-6.06v-64a9.2,9.2,0,0,1,1.86-5.58c3.76-5,12.55-17.78,19.94-37.63,9.69-26,20-81.15,20-81.15s4.9-9.64-6.64-16.38l-11.24-6.58c-.2-.12-.38-.21-.59-.32C1024.4,1365.73,999,1353.5,981.91,1352.81Z" transform="translate(-863.76 -299.35)"/><path class="cls-1" d="M1680.07,793.64A13.91,13.91,0,0,0,1661.75,808a170,170,0,0,1-1,29.44s-21.16,127.54-23.35,138c-1.54,7.41,16.2,45.6,26.7,67.3,3.52,7.27,12.58,10.23,19.46,6,20.9-12.86,46.11-15.34,63.1-15.23a13.79,13.79,0,0,0,13.35-17.38q-1.35-5-2.55-10.33c-13.09-57.83-12.45-136.18-11.35-171.08a24.56,24.56,0,0,0-16.57-24Z" transform="translate(-863.76 -299.35)"/><path class="cls-1" d="M1613,663.11c7.12-8.26,144-2,137.7,144.11,0,0-67.83-7.07-87.81-45.93S1627.57,683.7,1613,663.11Z" transform="translate(-863.76 -299.35)"/><path class="cls-1" d="M1751.54,993.62s12.1,35.13,25.42,55.72c0,0-73.88-8.48-98.1,31.49l-26.64-69.43-8.48-18.11S1689.79,1021.48,1751.54,993.62Z" transform="translate(-863.76 -299.35)"/><path class="cls-1" d="M1742.51,1066.13s32-4.68,49-2.26c0,0,37.54,27.86,49.66,127.17,0,0,19.37,103,37.54,139.29,0,0-58.67,1.21-68.09,26.64,0,0-57.87-115.75-80.88-146.89s-54.17-108.07-29.44-123.55S1732.31,1067.4,1742.51,1066.13Z" transform="translate(-863.76 -299.35)"/><path class="cls-1" d="M1864.45,1300.54s17.28,38.27,20.31,43.11c0,0-53.29-3-72.07,22.41,0,0-11.4-27.88-18.18-41.16a141.82,141.82,0,0,0,42.41-10.32C1858.11,1305.5,1864.45,1300.54,1864.45,1300.54Z" transform="translate(-863.76 -299.35)"/><path class="cls-1" d="M1882.09,1352c2.66-.11,10.58,6.6,12.42,8.52,10.53,11,43.83,45.86,56.86,59.41,15.14,15.75,53.29,33.92,48.45,42.39s-16.35,8.48-32.1,0l-.47-.25a9.32,9.32,0,0,0-13,12c12.12,27.65,30.44,69.12,34,75.5,5.45,9.69-3.63,15.74-8.48,15.74s-40-61.77-41.18-58.13,33.31,76.9,28.47,81.75-18.17,8.48-21.81,0S1915,1512,1909.59,1515s21.8,84.78,17,88.41-13.93,8.48-20-10.9-18.78-76.3-25.44-75.69-.6,65.4-4.24,67.21-17,7.27-17-6v-64a9.2,9.2,0,0,0-1.86-5.58c-3.76-5-12.55-17.78-19.94-37.64-9.69-26-20-81.15-20-81.15s-4.9-9.63,6.64-16.38l11.24-6.58a6.63,6.63,0,0,1,.59-.31C1839.6,1364.93,1865,1352.7,1882.09,1352Z" transform="translate(-863.76 -299.35)"/></svg>