<?xml version="1.0" encoding="utf-8"?>
<!-- Generator: Adobe Illustrator 21.0.1, SVG Export Plug-In . SVG Version: 6.00 Build 0)  -->
<svg version="1.1" id="Capa_1" xmlns="http://www.w3.org/2000/svg" xmlns:xlink="http://www.w3.org/1999/xlink" x="0px" y="0px"
	 viewBox="0 0 27.4 27.4" style="enable-background:new 0 0 27.4 27.4;" xml:space="preserve">
<style type="text/css">
	.st0{fill:url(#SVGID_1_);}
	.st1{fill:url(#SVGID_2_);}
	.st2{fill:url(#SVGID_3_);stroke:#FFFFFF;stroke-width:0.5;stroke-miterlimit:10;}
	.st3{fill:#FFFFFF;}
	.st4{fill:url(#SVGID_4_);}
</style>
<linearGradient id="SVGID_1_" gradientUnits="userSpaceOnUse" x1="272.75" y1="54.875" x2="289" y2="54.875">
	<stop  offset="0" style="stop-color:#30C5C2"/>
	<stop  offset="1" style="stop-color:#99CAFE"/>
</linearGradient>
<circle class="st0" cx="280.9" cy="54.9" r="8.1"/>
<linearGradient id="SVGID_2_" gradientUnits="userSpaceOnUse" x1="251.0508" y1="78.5439" x2="272.7155" y2="78.5439">
	<stop  offset="0" style="stop-color:#30C5C2"/>
	<stop  offset="1" style="stop-color:#99CAFE"/>
</linearGradient>
<path class="st1" d="M263,76.2l8.6-13.2c0,0,3.4-5.5-1.8-7.4s-14.1,1.4-18.6,17c0,0-1.8,4.2,5.1,8.8s8,4.9,7.2,6.1
	s-4.8,10.6-4.8,10.6s0.6,6.2,7,2.8l6.8-15.5C272.7,85.4,268,86.1,263,76.2z"/>
<g>
	<linearGradient id="SVGID_3_" gradientUnits="userSpaceOnUse" x1="261.8831" y1="71.0014" x2="277.2049" y2="71.0014">
		<stop  offset="0" style="stop-color:#30C5C2"/>
		<stop  offset="1" style="stop-color:#99CAFE"/>
	</linearGradient>
	<path class="st2" d="M275,84.2c-0.5,0.1-1.1,0-1.7-0.3c-7.5-3.9-10.2-11.5-11.1-17.2c-0.6-3.7-0.4-6.5-0.4-6.6
		c0.1-1.4,1.3-2.5,2.8-2.4c1.4,0.1,2.5,1.3,2.4,2.8c0,0.1-0.1,2.4,0.3,5.4c0.7,4.5,2.7,10.4,8.3,13.4c1.3,0.7,1.8,2.3,1.1,3.5
		C276.5,83.6,275.8,84.1,275,84.2z"/>
</g>
<path class="st3" d="M281.8,65.4c0,0,1.8-0.9,3.2,31.8c0,0-3.4,0-3.2,2.2c0,0-6.5,0.4-3.2,2.6s13.6,1.9,15.1-0.7c0,0,8.7-2,0-3.9
	c0,0-8.4-30-10.1-32.6C283.5,64.8,281.9,63.5,281.8,65.4z"/>
<path class="st3" d="M291.9,81.1c0,0,5.1,7.1,3.2,7.1S291.9,81.1,291.9,81.1z"/>
<path class="st3" d="M280.4,71c0,0,2.3,8.5,0.5,7.8S280.4,71,280.4,71z"/>
<linearGradient id="SVGID_4_" gradientUnits="userSpaceOnUse" x1="1.2524" y1="13.6045" x2="26.442" y2="13.6045">
	<stop  offset="0" style="stop-color:#30C5C2"/>
	<stop  offset="1" style="stop-color:#99CAFE"/>
</linearGradient>
<circle class="st4" cx="13.8" cy="13.6" r="12.6"/>
<g>
	<g>
		<rect x="7.3" y="11" class="st3" width="0.8" height="4"/>
		<path class="st3" d="M14.4,16.5h0.3v-0.8H7.3v0.8h0.8v4.2H11c0-1.5,1.1-1.4,1.1-1.4C15,18.8,14.4,16.5,14.4,16.5z"/>
		<path class="st3" d="M18.1,8.3c0.2-0.3,0.3-0.6,0.3-1c0-1-0.8-1.8-1.8-1.8c-1,0-1.8,0.8-1.8,1.8S15.7,9,16.7,9C16.9,9,17,9,17.2,9
			c-0.2,0.8-0.5,1.5-0.8,2.2c-0.2-0.3-0.3-0.5-0.5-0.8c0.2-1.1-1-2.5-2.3-1.7c-1.5,0.8-2.6,2.2-3.3,3.8c-0.3,0.8-0.2,1.7,0.6,2.1
			c0,0,0,0,0.1,0c0.1,0.1,0.3,0.2,0.5,0.2C13,14.9,14.5,15,16,15c-0.5,1.4-1,2.8-1.6,4.2c-0.5,1.2,1.5,1.7,1.9,0.5
			c0.7-1.8,1.4-3.6,2-5.5c0.2-0.8-0.5-1.3-1.1-1.2c0,0-0.1,0-0.1,0c0.5-1.3,1.2-2.5,1.4-3.8C18.7,8.7,18.5,8.4,18.1,8.3z M13.5,12.9
			c0.4-0.5,0.8-1,1.3-1.4c0.3,0.5,0.6,0.9,0.8,1.4C15,13,14.3,13,13.5,12.9z"/>
	</g>
</g>
</svg>
