<?xml version="1.0" encoding="utf-8"?>
<!-- Generator: Adobe Illustrator 21.0.1, SVG Export Plug-In . SVG Version: 6.00 Build 0)  -->
<svg version="1.1" id="Capa_1" xmlns="http://www.w3.org/2000/svg" xmlns:xlink="http://www.w3.org/1999/xlink" x="0px" y="0px"
	 viewBox="0 0 27.4 27.4" style="enable-background:new 0 0 27.4 27.4;" xml:space="preserve">
<style type="text/css">
	.st0{fill:url(#SVGID_1_);}
	.st1{fill:#FFFFFF;}
</style>
<linearGradient id="SVGID_1_" gradientUnits="userSpaceOnUse" x1="1.2524" y1="13.6045" x2="26.442" y2="13.6045">
	<stop  offset="0" style="stop-color:#30C5C2"/>
	<stop  offset="1" style="stop-color:#99CAFE"/>
</linearGradient>
<circle class="st0" cx="13.8" cy="13.6" r="12.6"/>
<g>
	<circle class="st1" cx="15.6" cy="7.7" r="2.4"/>
	<path class="st1" d="M10.4,13.9l2.5-3.8c0,0,1-1.6-0.5-2.1C11,7.4,8.3,8.4,7,12.9c0,0-0.5,1.2,1.5,2.5s2.3,1.4,2.1,1.8
		c-0.2,0.4-1.4,3.1-1.4,3.1s0.2,1.8,2,0.8l2-4.5C13.3,16.6,11.9,16.8,10.4,13.9z"/>
	<g>
		<path class="st1" d="M13.9,16.3c-0.2,0-0.3,0-0.5-0.1c-2.2-1.1-2.9-3.3-3.2-5c-0.2-1.1-0.1-1.9-0.1-1.9c0-0.4,0.4-0.7,0.8-0.7
			c0.4,0,0.7,0.4,0.7,0.8c0,0,0,0.7,0.1,1.6c0.2,1.3,0.8,3,2.4,3.9c0.4,0.2,0.5,0.7,0.3,1C14.4,16.1,14.2,16.2,13.9,16.3z"/>
	</g>
	<path class="st1" d="M15.9,10.8c0,0,0.5-0.3,0.9,9.2c0,0-1,0-0.9,0.7c0,0-1.9,0.1-0.9,0.7c0.9,0.6,4,0.6,4.4-0.2c0,0,2.5-0.6,0-1.1
		c0,0-2.4-8.7-2.9-9.5C16.4,10.6,15.9,10.2,15.9,10.8z"/>
	<path class="st1" d="M18.8,15.4c0,0,1.5,2.1,0.9,2.1S18.8,15.4,18.8,15.4z"/>
	<path class="st1" d="M15.5,12.4c0,0,0.7,2.5,0.2,2.3S15.5,12.4,15.5,12.4z"/>
</g>
</svg>
